<svg xmlns="http://www.w3.org/2000/svg" viewBox="0 0 512 512" fill="none">
  <defs>
    <linearGradient id="sky" x1="256" y1="0" x2="256" y2="512" gradientUnits="userSpaceOnUse">
      <stop stop-color="#0b1220"/>
      <stop offset="1" stop-color="#111827"/>
    </linearGradient>
    <linearGradient id="fuselage" x1="256" y1="120" x2="256" y2="392" gradientUnits="userSpaceOnUse">
      <stop stop-color="#94a3b8"/>
      <stop offset="0.45" stop-color="#cbd5e1"/>
      <stop offset="1" stop-color="#64748b"/>
    </linearGradient>
    <linearGradient id="wing" x1="96" y1="220" x2="416" y2="320" gradientUnits="userSpaceOnUse">
      <stop stop-color="#475569"/>
      <stop offset="0.5" stop-color="#64748b"/>
      <stop offset="1" stop-color="#334155"/>
    </linearGradient>
    <radialGradient id="cockpit" cx="0" cy="0" r="1" gradientUnits="userSpaceOnUse" gradientTransform="translate(256 210) rotate(90) scale(42)">
      <stop stop-color="#67e8f9"/>
      <stop offset="1" stop-color="#0369a1"/>
    </radialGradient>
  </defs>
  <rect width="512" height="512" rx="112" fill="url(#sky)"/>
  <circle cx="256" cy="256" r="188" fill="rgba(56,189,248,0.08)"/>
  <path d="M256 92 L274 168 L256 196 L238 168 Z" fill="#475569"/>
  <path d="M256 196 L292 360 L256 404 L220 360 Z" fill="url(#fuselage)"/>
  <path d="M256 232 L404 286 L382 312 L256 278 L130 312 L108 286 Z" fill="url(#wing)"/>
  <path d="M256 278 L318 318 L256 334 L194 318 Z" fill="#334155" opacity="0.85"/>
  <ellipse cx="256" cy="214" rx="22" ry="34" fill="url(#cockpit)"/>
  <path d="M214 132 L246 168 L214 182 Z" fill="#64748b"/>
  <path d="M298 132 L266 168 L298 182 Z" fill="#64748b"/>
  <path d="M236 388 L256 420 L276 388 L268 372 L244 372 Z" fill="#475569"/>
  <path d="M248 418 L256 438 L264 418 Z" fill="#fb923c" opacity="0.9"/>
  <text x="256" y="468" text-anchor="middle" fill="#38bdf8" font-family="ui-sans-serif,system-ui,sans-serif" font-size="34" font-weight="800" letter-spacing="2">KF-15</text>
</svg>
